<svg xmlns="http://www.w3.org/2000/svg" viewBox="0 0 160 67" width="160" height="67">
	<style>
		tspan { white-space:pre }
		.shp0 { fill: #000000 } 
	</style>
	<g id="Layer">
		<path id="Layer" fill-rule="evenodd" class="shp0" d="M157.94 50.37C156.7 50.53 155.41 50.64 154.18 50.75C154.18 50.81 154.18 50.81 154.18 50.81C151.76 68.17 127.99 71.04 127.4 57.41C127.13 51.24 138.99 49.46 150.8 48.32C151.23 37.23 134.9 53.98 129.19 43.72C124.17 34.69 143.82 25.78 145.92 27.61C152.36 33.25 149.32 34.23 144.54 35.95C135.05 39.36 138.75 40.06 140.03 39.68C147.6 37.42 154.39 38.64 154.34 47.99C155.63 47.89 156.86 47.83 158.1 47.72C160.4 47.51 160.56 50.16 157.94 50.37ZM150.42 51.13C141.3 52.16 133.41 53.57 134.27 56.48C135.98 62.06 147.85 63.3 150.42 51.13Z" />
	</g>
	<g id="Layer">
		<path id="Layer" class="shp0" d="M117.68 45.92C117 45.88 116.97 39.88 117.79 34.23C118.79 27.28 129.72 30.87 126.88 32.32C123.91 33.84 122.45 41.04 120.62 44.41C119.98 45.57 118.01 45.94 117.68 45.92Z" />
	</g>
	<g id="Layer">
		<path id="Layer" class="shp0" d="M42.1 22C44.48 26.87 37.17 30.17 33.81 26.52C32.41 24.97 33.06 21.96 36.45 20.33C38.15 19.49 40.52 18.73 42.1 22Z" />
	</g>
	<g id="Layer">
		<path id="Layer" class="shp0" d="M57.06 19.86C59.65 25.16 51.68 28.76 48.03 24.78C46.51 23.09 47.21 19.82 50.9 18.04C52.75 17.13 55.34 16.3 57.06 19.86Z" />
	</g>
	<g id="Layer">
		<path id="Layer" class="shp0" d="M28.88 62.67C20.96 68 14.66 66.82 16.67 51.82C18.12 40.91 15.72 40.3 13.55 42.38C10.7 45.07 8.92 52.1 8.86 58.79C9.14 60.47 9.48 62.1 9.87 63.56C10.2 65.19 4.96 66.88 1.89 64.57C0.84 63.79 0 55.86 0 45.13C0 36.31 1.17 30.24 2.23 29.96C10.26 27.76 11.54 31.3 9.81 37.94C9.09 40.69 8.64 43.33 8.42 45.86C10.09 41.2 12.49 37.38 15.22 35.69C22.64 31.02 28.83 33.21 27.65 42.49C25.65 59.07 25.48 61.32 27.26 60.02C29.5 58.45 30.94 61.26 28.88 62.67Z" />
	</g>
	<g id="Layer">
		<path id="Layer" fill-rule="evenodd" class="shp0" d="M54.98 60.59C52.81 64.07 47.18 65.76 41.77 65.14C34.02 64.3 29.22 57.39 31.06 47.04C33.07 35.86 49.13 28.72 54.26 36.7C57.99 42.49 52.08 52.72 42.66 56.49C42.49 56.54 42.32 56.6 42.16 56.65C44.11 61.83 48.74 64.13 53.2 59.01C55.32 56.65 56.82 57.67 54.98 60.59ZM41.38 53.17C47.23 49.01 49.18 39.85 47.57 37.27C45.84 34.57 42.49 38.78 41.32 49.01C41.21 50.47 41.21 51.88 41.38 53.17Z" />
	</g>
	<g id="Layer">
		<path id="Layer" class="shp0" d="M83.09 45.99C81.49 48.5 79.19 50.38 77.12 51.05C74.73 51.78 71.94 51.11 71.94 48.35C71.94 47.34 72.83 44.98 75.56 43.63C75.4 41.72 74.17 41.21 73.28 41.95C69.93 44.53 65.86 54.2 66.92 61.17C66.98 61.33 66.98 61.5 66.98 61.67C67.14 62.29 67.31 62.91 67.53 63.53C68.09 65.1 62.63 66.84 59.56 64.48C58.5 63.69 57.94 57.51 57.94 46.78C57.94 37.95 59.9 30.14 60.96 29.86C67.37 28.12 71.1 31.15 69.1 37.11C67.92 40.48 66.87 43.91 66.25 47.51C68.71 40.82 72.78 34.64 76.06 33.01C81.92 30.09 86.16 33.96 84.93 40.82C84.88 40.93 84.82 41.21 84.82 41.27C84.76 41.83 84.25 43.57 84.43 43.01C83.91 44.66 83.54 45.29 83.09 45.99Z" />
	</g>
	<g id="Layer">
		<path id="Layer" fill-rule="evenodd" class="shp0" d="M113.21 27.16C112.76 29.46 112.37 31.99 112.09 34.69C111.03 44.75 111.48 53.69 112.7 57.68C113.43 59.81 116.16 62.62 118.78 59.7C121.63 56.5 124.75 58.35 120.96 62.12C118.62 64.42 114.27 65.99 109.92 65.54C106.79 65.15 104.9 63.13 103.78 60.04C103.34 60.94 102.84 61.72 102.22 62.34C100.1 64.53 97.54 65.77 94.25 65.43C87.61 64.7 83.71 57.51 85.55 47.28C87.5 36.49 96.87 32.56 102.28 35.42C102.39 34.07 102.5 32.72 102.61 31.32C102.67 31.04 102.67 30.76 102.72 30.48C101.16 30.81 99.49 31.15 97.76 31.43C73.79 35.42 82.04 15.86 87.89 10.75C94.53 5.02 95.25 8.89 93.19 10.19C89.51 12.55 87.89 26.09 98.43 26.09C100.16 26.09 101.78 25.98 103.39 25.81C106.68 7.49 116.66 -1.39 124.75 1.53C133.73 4.79 132.78 19.07 113.21 27.16ZM102.28 51.55C102.05 48.01 102.05 44.02 102.11 39.92C102.11 39.41 102.17 38.91 102.17 38.46C98.82 36.94 95.53 42.11 94.69 49.25C93.75 57.62 97.48 62.06 99.6 60.04C101.22 58.41 102.06 53.24 102.28 51.55ZM126.36 8.39C124.58 5.75 118.06 8.95 114.27 22.72C123.8 18.17 127.59 10.3 126.36 8.39Z" />
	</g>
</svg>