<svg xmlns="http://www.w3.org/2000/svg" viewBox="0 0 360 40" width="360" height="40">
	<style>
		tspan { white-space:pre }
		.shp0 { fill: #4d4d4d } 
	</style>
	<path id="Layer" fill-rule="evenodd" class="shp0" d="M360 4L360 40L0 40L0 4C0 1.8 1.8 0 4 0L356 0C358.2 0 360 1.8 360 4ZM29.99 20C29.99 16.13 26.86 13 22.99 13C19.12 13 15.99 16.13 15.99 20C15.99 23.87 19.12 27 22.99 27C26.86 27 29.99 23.87 29.99 20ZM53 20C53 16.13 49.87 13 46 13C42.14 13 39 16.13 39 20C39 23.87 42.14 27 46 27C49.87 27 53 23.87 53 20ZM76.01 20C76.01 16.13 72.88 13 69.01 13C65.15 13 62.01 16.13 62.01 20C62.01 23.87 65.15 27 69.01 27C72.88 27 76.01 23.87 76.01 20Z" />
</svg>