<svg xmlns="http://www.w3.org/2000/svg" viewBox="0 0 27 23" width="27" height="23">
	<style>
		tspan { white-space:pre }
		.shp0 { fill: #4d4d4d } 
	</style>
	<g id="Layer_2">
		<g id="Layer">
			<path id="Layer" class="shp0" d="M7.28 7.49L4.46 10.31L12.24 18.1L26.17 4.17L23.34 1.34L12.24 12.44L7.28 7.49Z" />
			<path id="Layer" class="shp0" d="M21 20C21 20.54 20.54 21 20 21L3 21C2.46 21 2 20.54 2 20L2 3C2 2.46 2.46 2 3 2L19.91 2L21.49 0.41C21.05 0.16 20.54 0 20 0L3 0C1.35 0 0 1.35 0 3L0 20C0 21.65 1.35 23 3 23L20 23C21.65 23 23 21.65 23 20L23 10.17L21 12.17L21 20Z" />
		</g>
	</g>
</svg>
