<svg xmlns="http://www.w3.org/2000/svg" viewBox="0 0 27 16" width="27" height="16">
	<style>
		tspan { white-space:pre }
		.shp0 { fill: #ffffff; opacity: 0.3; } 
	</style>
	<path id="Layer" class="shp0" d="M16.14 12.51C17.09 12.2 18.32 14.55 19.62 15.45C20.6 16.13 21.35 15.98 21.35 15.98L24.82 15.93C24.82 15.93 26.64 15.82 25.78 14.38C25.71 14.26 25.27 13.31 23.19 11.36C21.02 9.31 21.31 9.64 23.93 6.11C25.53 3.96 26.17 2.64 25.97 2.08C25.78 1.55 24.6 1.69 24.6 1.69L20.69 1.71C20.31 1.71 19.99 1.83 19.84 2.23C19.84 2.23 19.22 3.89 18.39 5.31C16.65 8.3 15.96 8.45 15.67 8.27C15.01 7.83 15.18 6.53 15.18 5.6C15.18 2.71 15.61 1.5 14.33 1.19C13.9 1.08 13.59 1.01 12.5 1C11.11 0.98 9.93 1 9.26 1.33C8.81 1.56 8.47 2.05 8.68 2.07C8.94 2.11 9.52 2.23 9.83 2.66C10.23 3.21 10.22 4.45 10.22 4.45C10.22 4.45 10.45 7.86 9.68 8.28C9.15 8.57 8.43 7.98 6.88 5.27C6.09 3.88 5.49 2.34 5.49 2.34C5.49 2.34 5.37 2.06 5.16 1.9C4.91 1.72 4.56 1.66 4.56 1.66L0.85 1.68C0.85 1.68 0.29 1.7 0.08 1.95C-0.1 2.16 0.07 2.61 0.07 2.61C0.07 2.61 2.98 9.49 6.27 12.96C9.29 16.14 12.72 15.93 12.72 15.93L14.28 15.93C14.28 15.93 14.75 15.88 14.99 15.62C15.21 15.38 15.2 14.93 15.2 14.93C15.2 14.93 15.17 12.82 16.14 12.51Z" />
</svg>
